<svg width="72.000000" height="72.000000" viewBox="0 0 72 72" fill="none" xmlns="http://www.w3.org/2000/svg" xmlns:xlink="http://www.w3.org/1999/xlink">
	<desc>
			Created with Pixso.
	</desc>
	<defs>
		<clipPath id="clip964_17605">
			<rect id="icn settings .icn-xl" width="72.000000" height="72.000000" fill="white" fill-opacity="0"/>
		</clipPath>
	</defs>
	<rect id="icn settings .icn-xl" width="72.000000" height="72.000000" fill="#FFFFFF" fill-opacity="0"/>
	<g clip-path="url(#clip964_17605)">
		<path id="Vector" d="M29 42C36.9971 42 43.5 35.7209 43.5 28C43.5 20.2791 36.9971 14 29 14C21.0029 14 14.5 20.2791 14.5 28C14.5 35.7209 21.0029 42 29 42ZM29 21C32.998 21 36.25 24.1394 36.25 28C36.25 31.8606 32.998 35 29 35C25.002 35 21.75 31.8606 21.75 28C21.75 24.1394 25.002 21 29 21Z" fill="#FFFFFF" fill-opacity="1.000000" fill-rule="nonzero"/>
		<path id="Vector" d="M26.9336 70.3403C27.5371 70.7693 28.2588 71 29 71C29.7412 71 30.4629 70.7693 31.0664 70.3403C32.1494 69.5769 57.6025 51.2625 57.5 28.4001C57.5 12.741 44.7139 0 29 0C13.2861 0 0.5 12.741 0.5 28.3826C0.397461 51.2625 25.8506 69.5769 26.9336 70.3403ZM29 7.1001C40.7881 7.1001 50.375 16.6531 50.375 28.418C50.4492 44.1731 34.7432 58.3198 29 62.9597C23.2607 58.3164 7.55078 44.166 7.625 28.4001C7.625 16.6531 17.2119 7.1001 29 7.1001Z" fill="#FFFFFF" fill-opacity="1.000000" fill-rule="nonzero"/>
	</g>
</svg>
