<svg width="19" height="15" viewBox="0 0 19 15" fill="none" xmlns="http://www.w3.org/2000/svg">
<path d="M18.5683 2.09166C17.8815 2.39007 17.1548 2.58667 16.4113 2.67525C17.1927 2.21768 17.7804 1.49075 18.064 0.630797C17.3252 1.0628 16.5183 1.36591 15.6778 1.52715C15.3239 1.15622 14.8982 0.861142 14.4267 0.659841C13.9552 0.458539 13.4477 0.355222 12.935 0.356169C10.8592 0.356169 9.17944 2.01156 9.17944 4.0522C9.17796 4.33604 9.21049 4.61904 9.27632 4.89515C7.78787 4.82537 6.33038 4.44567 4.99708 3.78034C3.66379 3.115 2.48405 2.17869 1.53335 1.0313C1.19982 1.59356 1.02343 2.2351 1.02262 2.88884C1.02262 4.17044 1.69126 5.30328 2.7009 5.96696C2.10272 5.95276 1.51679 5.79444 0.992868 5.50543V5.5512C0.992868 7.34391 2.28972 8.83529 4.00614 9.17476C3.68337 9.2608 3.35076 9.3044 3.01672 9.30445C2.77969 9.30486 2.5432 9.28186 2.3107 9.23579C2.78786 10.7043 4.17664 11.7723 5.82173 11.8028C4.48498 12.833 2.84379 13.3898 1.15612 13.3857C0.856553 13.3853 0.557266 13.3674 0.259766 13.3323C1.97664 14.4286 3.97236 15.0085 6.0094 15.003C12.927 15.003 16.7061 9.36929 16.7061 4.48321C16.7061 4.32301 16.7019 4.16281 16.6943 4.00643C17.4278 3.48466 18.0624 2.83625 18.5683 2.09166Z" fill="white"/>
</svg>
