<svg width="163" height="163" viewBox="0 0 163 163" fill="none" xmlns="http://www.w3.org/2000/svg">
<path d="M71.4798 75.7468C71.4798 76.4726 71.3306 77.1561 71.032 77.7975C70.7334 78.4304 70.2856 78.9873 69.6884 79.4684C69.0913 79.9409 68.3406 80.3165 67.4363 80.5949C66.5321 80.865 65.4786 81 64.2758 81C63.6104 81 63.0132 80.9789 62.4843 80.9367C61.9554 80.8945 61.4607 80.8397 61 80.7722V78.7975C61.5289 78.8903 62.0877 78.962 62.6763 79.0127C63.2649 79.0633 63.8663 79.0886 64.4805 79.0886C65.3165 79.0886 66.0288 79.0169 66.6174 78.8734C67.2145 78.7215 67.7008 78.5063 68.0761 78.2278C68.4515 77.9494 68.7245 77.6118 68.8951 77.2152C69.0657 76.8186 69.151 76.3713 69.151 75.8734C69.151 75.4177 69.0486 75.0211 68.8439 74.6835C68.6392 74.346 68.3491 74.0633 67.9738 73.8354C67.607 73.6076 67.1634 73.4388 66.643 73.3291C66.1312 73.211 65.5681 73.1519 64.9539 73.1519H63.0473V71.3418H64.9795C65.4828 71.3418 65.9392 71.2785 66.3487 71.1519C66.7667 71.0169 67.1207 70.827 67.4107 70.5823C67.7093 70.3376 67.9354 70.038 68.0889 69.6835C68.251 69.3207 68.3321 68.9114 68.3321 68.4557C68.3321 67.5696 68.0591 66.9241 67.5131 66.519C66.9672 66.1139 66.1653 65.9114 65.1075 65.9114C64.5445 65.9114 63.9644 65.9662 63.3672 66.0759C62.7701 66.1857 62.1303 66.3502 61.4479 66.5696V64.6456C61.7379 64.5443 62.045 64.4557 62.3692 64.3797C62.7019 64.2954 63.0303 64.2278 63.3544 64.1772C63.6871 64.1181 64.0156 64.0759 64.3397 64.0506C64.6639 64.0169 64.9753 64 65.2738 64C66.161 64 66.9416 64.097 67.6155 64.2911C68.2894 64.4768 68.8524 64.7468 69.3045 65.1013C69.7567 65.4557 70.0979 65.8861 70.3282 66.3924C70.5585 66.8987 70.6737 67.4684 70.6737 68.1013C70.6737 69.0464 70.4263 69.8397 69.9315 70.481C69.4453 71.1224 68.7756 71.6329 67.9226 72.0127C68.3576 72.0802 68.7842 72.2152 69.2022 72.4177C69.6287 72.6203 70.0083 72.8819 70.341 73.2025C70.6822 73.5148 70.9552 73.8861 71.1599 74.3165C71.3732 74.7468 71.4798 75.2236 71.4798 75.7468Z" fill="#2FA300"/>
<path d="M86.4127 75.5316C86.4127 76.2911 86.2719 77.0042 85.9904 77.6709C85.7174 78.3376 85.325 78.9198 84.8132 79.4177C84.3013 79.9072 83.6829 80.2954 82.9578 80.5823C82.2412 80.8608 81.4436 81 80.5649 81C79.6436 81 78.829 80.8565 78.1209 80.5696C77.4129 80.2743 76.82 79.827 76.3423 79.2278C75.8646 78.6203 75.502 77.8565 75.2546 76.9367C75.0073 76.0169 74.8836 74.9283 74.8836 73.6709C74.8836 72.827 74.939 72.0084 75.0499 71.2152C75.1608 70.4219 75.3442 69.6751 75.6001 68.9747C75.856 68.2743 76.1973 67.6329 76.6238 67.0506C77.0503 66.4684 77.5792 65.9705 78.2105 65.557C78.8503 65.135 79.601 64.8101 80.4626 64.5823C81.3242 64.346 82.3222 64.2278 83.4568 64.2278H85.1075V66.1519H83.3161C82.318 66.1519 81.4521 66.27 80.7185 66.5063C79.9849 66.7426 79.3707 67.0759 78.8759 67.5063C78.3811 67.9367 78.0015 68.4557 77.737 69.0633C77.4726 69.6709 77.3062 70.3502 77.238 71.1013L77.1868 71.6203C77.7242 71.308 78.3427 71.0591 79.0422 70.8734C79.7503 70.6793 80.5138 70.5823 81.3327 70.5823C82.1772 70.5823 82.9151 70.7046 83.5464 70.9494C84.1862 71.1941 84.7151 71.5359 85.1331 71.9747C85.5596 72.4051 85.8795 72.9241 86.0928 73.5316C86.306 74.1392 86.4127 74.8059 86.4127 75.5316ZM84.0838 75.6709C84.0838 75.1646 84.0198 74.7089 83.8919 74.3038C83.7724 73.8903 83.5805 73.5443 83.3161 73.2658C83.0516 72.9789 82.7147 72.7595 82.3052 72.6076C81.9042 72.4473 81.4223 72.3671 80.8592 72.3671C80.5351 72.3671 80.2067 72.3966 79.874 72.4557C79.5413 72.5148 79.2128 72.5992 78.8887 72.7089C78.573 72.8101 78.2702 72.9283 77.9802 73.0633C77.6901 73.1983 77.4257 73.3418 77.1868 73.4937C77.1868 74.5823 77.2636 75.4937 77.4171 76.2278C77.5707 76.9536 77.7968 77.5359 78.0953 77.9747C78.4024 78.4135 78.7778 78.7257 79.2214 78.9114C79.665 79.097 80.1768 79.1899 80.7569 79.1899C81.2431 79.1899 81.6867 79.1139 82.0877 78.962C82.4971 78.8017 82.8469 78.5696 83.1369 78.2658C83.4355 77.962 83.6658 77.5949 83.8279 77.1646C83.9985 76.7257 84.0838 76.2278 84.0838 75.6709Z" fill="#2FA300"/>
<path d="M101 72.5063C101 73.7722 100.872 74.9283 100.616 75.9747C100.36 77.0127 99.9721 77.9072 99.4517 78.6582C98.9313 79.4008 98.283 79.9789 97.5067 80.3924C96.739 80.7975 95.8347 81 94.794 81C93.8983 81 93.0836 80.8354 92.35 80.5063C91.6163 80.1688 90.9893 79.654 90.469 78.962C89.9486 78.27 89.5477 77.3882 89.2662 76.3165C88.9846 75.2447 88.8439 73.9747 88.8439 72.5063C88.8439 71.2405 88.9718 70.0844 89.2278 69.038C89.4922 67.9916 89.8804 67.097 90.3922 66.3544C90.9126 65.6034 91.5609 65.0253 92.3372 64.6203C93.1135 64.2068 94.0177 64 95.0499 64C95.9456 64 96.7603 64.1688 97.4939 64.5063C98.2276 64.8354 98.8546 65.3502 99.3749 66.0506C99.8953 66.7426 100.296 67.6245 100.578 68.6962C100.859 69.7679 101 71.038 101 72.5063ZM98.7479 72.5823C98.7479 72.2954 98.7351 72.0127 98.7095 71.7342C98.6925 71.4473 98.6711 71.1688 98.6456 70.8987L91.5694 76.1013C91.6974 76.5401 91.8595 76.9451 92.0557 77.3165C92.2519 77.6878 92.4865 78.0084 92.7594 78.2785C93.0409 78.5401 93.3566 78.7468 93.7063 78.8987C94.0646 79.0422 94.4698 79.1139 94.9219 79.1139C95.502 79.1139 96.0267 78.9747 96.4958 78.6962C96.9736 78.4177 97.3788 78.0042 97.7115 77.4557C98.0441 76.9072 98.3001 76.2278 98.4792 75.4177C98.6584 74.5992 98.7479 73.654 98.7479 72.5823ZM91.096 72.4304C91.096 72.692 91.096 72.9536 91.096 73.2152C91.1045 73.4768 91.1216 73.73 91.1472 73.9747L98.2233 68.7975C98.0953 68.3671 97.9333 67.9747 97.737 67.6203C97.5408 67.2658 97.3062 66.962 97.0333 66.7089C96.7603 66.4473 96.4489 66.2447 96.0992 66.1013C95.7494 65.9578 95.357 65.8861 94.9219 65.8861C94.3419 65.8861 93.813 66.0253 93.3353 66.3038C92.8661 66.5823 92.4651 67 92.1324 67.557C91.7997 68.1055 91.5438 68.789 91.3647 69.6076C91.1855 70.4177 91.096 71.3586 91.096 72.4304Z" fill="#2FA300"/>
<path d="M150.8 92.378C157.052 53.8611 130.895 17.5695 92.378 11.3185C53.8611 5.06744 17.5696 31.2241 11.3185 69.7409C5.06747 108.258 31.2241 144.549 69.741 150.8C108.258 157.051 144.549 130.895 150.8 92.378Z" stroke="#1F1F1F" stroke-miterlimit="10"/>
<path d="M99.5992 125.821C124.317 115.582 136.054 87.2448 125.816 62.5273C115.577 37.8099 87.2397 26.0723 62.5223 36.3109C37.8048 46.5494 26.0673 74.8868 36.3058 99.6043C46.5444 124.322 74.8818 136.059 99.5992 125.821Z" stroke="#2FA300" stroke-width="0.5" stroke-miterlimit="10"/>
<path d="M81 141.011C114.137 141.011 141 114.148 141 81.0105C141 47.8734 114.137 21.0105 81 21.0105C47.8629 21.0105 21 47.8734 21 81.0105C21 114.148 47.8629 141.011 81 141.011Z" stroke="#1F1F1F" stroke-miterlimit="10" stroke-dasharray="1 1"/>
<path d="M33 87.0105C35.7848 111.267 56.6709 130.01 81.7342 130.01C87.8608 130.01 93.7089 128.908 99 126.703" stroke="#2FA300" stroke-width="3" stroke-miterlimit="10"/>
<path d="M52.821 80C43.7594 83.5072 44.9002 97.8551 79 97.8551M79 97.8551L74.3016 93.7101M79 97.8551L74.3016 102" stroke="#2FA300" stroke-width="2" stroke-linecap="round"/>
<path d="M109.017 80C118.418 83.5962 115.285 94.0577 93 97" stroke="#2FA300" stroke-width="2" stroke-linecap="round" stroke-linejoin="round"/>
<circle cx="104" cy="60" r="1.5" stroke="#2FA300"/>
</svg>
