<svg width="163" height="163" viewBox="0 0 163 163" fill="none" xmlns="http://www.w3.org/2000/svg">
<path d="M11.3184 69.741C5.06736 108.258 31.224 144.549 69.7409 150.801C108.258 157.052 144.549 130.895 150.8 92.3781C157.051 53.8612 130.895 17.5696 92.3779 11.3186C53.861 5.06752 17.5695 31.2242 11.3184 69.741Z" stroke="#1F1F1F" stroke-miterlimit="10"/>
<path d="M62.5197 36.2983C37.8022 46.5368 26.0647 74.8742 36.3032 99.5917C46.5417 124.309 74.8792 136.047 99.5966 125.808C124.314 115.57 136.052 87.2322 125.813 62.5147C115.575 37.7972 87.2371 26.0597 62.5197 36.2983Z" stroke="#2FA300" stroke-width="0.5" stroke-miterlimit="10"/>
<path d="M81.1189 21.1085C47.9818 21.1085 21.1189 47.9714 21.1189 81.1085C21.1189 114.246 47.9818 141.109 81.1189 141.109C114.256 141.109 141.119 114.246 141.119 81.1085C141.119 47.9714 114.256 21.1085 81.1189 21.1085Z" stroke="#1F1F1F" stroke-miterlimit="10" stroke-dasharray="1 1"/>
<path d="M129.119 75.1085C126.334 50.8521 105.448 32.1085 80.3847 32.1085C74.2581 32.1085 68.41 33.2111 63.1189 35.4162" stroke="#2FA300" stroke-width="3" stroke-miterlimit="10"/>
<path fill-rule="evenodd" clipRule="evenodd" d="M71.5294 53.0001C65.1619 53.0001 60 58.162 60 64.5295V79.3531H83.0588V64.5295C83.0588 58.162 77.8969 53.0001 71.5294 53.0001ZM60 82.9767V97.4707C60 103.838 65.1619 109 71.5294 109C77.8969 109 83.0588 103.838 83.0588 97.4707V82.9767H60ZM65.1059 65.3531C65.1059 63.8449 65.5229 62.4087 66.2368 61.3735C66.9418 60.3513 67.9038 59.7531 69.0588 59.7531V58.106C67.2491 58.106 65.8229 59.0725 64.8809 60.4385C63.9477 61.7915 63.4588 63.5671 63.4588 65.3531V75.2354H65.1059V65.3531Z" fill="#2FA300"/>
<path fill-rule="evenodd" clipRule="evenodd" d="M91.605 67.8291C96.5549 63.8236 103.815 64.5892 107.82 69.539C111.826 74.4889 111.06 81.7487 106.11 85.7542L94.5869 95.079L86.0234 84.4966V77.9506L86.4946 78.5328L94.1768 72.3163C95.3492 71.3676 96.7279 70.7883 97.9817 70.6921C99.2198 70.5971 100.29 70.9686 101.017 71.8665L102.297 70.8304C101.159 69.4236 99.5101 68.9229 97.8557 69.0499C96.2168 69.1756 94.529 69.9125 93.1407 71.0359L86.0234 76.7953V72.3458L91.605 67.8291ZM86.0234 102.009L91.7701 97.3584L86.0234 90.2569V102.009Z" fill="#2FA300"/>
</svg>
