<svg width="163" height="163" viewBox="0 0 163 163" fill="none" xmlns="http://www.w3.org/2000/svg">
<path d="M11.3184 69.741C5.06736 108.258 31.224 144.549 69.7409 150.801C108.258 157.052 144.549 130.895 150.8 92.3781C157.051 53.8612 130.895 17.5696 92.3779 11.3186C53.861 5.06752 17.5695 31.2242 11.3184 69.741Z" stroke="#1F1F1F" stroke-miterlimit="10"/>
<path d="M62.5197 36.2983C37.8022 46.5368 26.0647 74.8742 36.3032 99.5917C46.5417 124.309 74.8792 136.047 99.5966 125.808C124.314 115.57 136.052 87.2322 125.813 62.5147C115.575 37.7972 87.2371 26.0597 62.5197 36.2983Z" stroke="#2FA300" stroke-width="0.5" stroke-miterlimit="10"/>
<path d="M81.1189 21.1085C47.9818 21.1085 21.1189 47.9714 21.1189 81.1085C21.1189 114.246 47.9818 141.109 81.1189 141.109C114.256 141.109 141.119 114.246 141.119 81.1085C141.119 47.9714 114.256 21.1085 81.1189 21.1085Z" stroke="#1F1F1F" stroke-miterlimit="10" stroke-dasharray="1 1"/>
<path d="M129.119 75.1085C126.334 50.8521 105.448 32.1085 80.3847 32.1085C74.2581 32.1085 68.41 33.2111 63.1189 35.4162" stroke="#2FA300" stroke-width="3" stroke-miterlimit="10"/>
<path d="M80.5382 84.0001C66.1221 84.0001 65.1156 94.3164 66.4143 99.4745C76.9341 105.86 90.387 102.135 95.7984 99.4745C96.7184 94.3164 94.9542 84.0001 80.5382 84.0001Z" fill="#2FA300"/>
<path d="M91.1722 79.1776C90.5377 80.0703 88.7929 81.7814 87.9998 82.5254C92.2825 82.5254 98.786 87.9457 97.9929 94.9601C102.561 95.3427 108.568 92.8877 111 91.6123V87.308C109.889 77.7428 99.8963 76.6269 91.1722 79.1776Z" fill="#2FA300"/>
<path d="M70.8273 79.1776C71.4618 80.0703 73.2067 81.7814 73.9998 82.5254C69.717 82.5254 63.2135 87.9457 64.0067 94.9601C59.4384 95.3427 53.4319 92.8877 50.9998 91.6123V87.308C52.1101 77.7428 62.1032 76.6269 70.8273 79.1776Z" fill="#2FA300"/>
<path fill-rule="evenodd" clipRule="evenodd" d="M99.49 76.4229C104.301 76.4229 108.201 72.5227 108.201 67.7115C108.201 62.9003 104.301 59.0001 99.49 59.0001C95.3524 59.0001 91.8885 61.8848 90.9998 65.7527C92.4775 67.6218 93.3597 69.9834 93.3597 72.5511C93.3597 72.9827 93.3348 73.4085 93.2863 73.8272C94.8661 75.4296 97.0621 76.4229 99.49 76.4229Z" fill="#2FA300"/>
<circle cx="81.4998" cy="72.5001" r="9.5" fill="#2FA300"/>
<path fill-rule="evenodd" clipRule="evenodd" d="M63.9055 76.4229C59.0943 76.4229 55.1941 72.5227 55.1941 67.7115C55.1941 62.9003 59.0943 59.0001 63.9055 59.0001C68.0431 59.0001 71.507 61.8848 72.3958 65.7527C70.918 67.6218 70.0358 69.9834 70.0358 72.5511C70.0358 72.9827 70.0607 73.4085 70.1092 73.8272C68.5294 75.4296 66.3335 76.4229 63.9055 76.4229Z" fill="#2FA300"/>
</svg>
