<svg width="504" height="504" viewBox="0 0 504 504" fill="none" xmlns="http://www.w3.org/2000/svg">
<path d="M293.328 504L293.328 0" stroke="url(#paint0_linear_513_4885)" stroke-width="2"/>
<path d="M127.228 504L127.228 0" stroke="url(#paint1_linear_513_4885)" stroke-width="2"/>
<path d="M348.694 504L348.694 0" stroke="url(#paint2_linear_513_4885)" stroke-width="2"/>
<path d="M182.595 504L182.594 0" stroke="url(#paint3_linear_513_4885)" stroke-width="2"/>
<path d="M237.961 504L237.961 0" stroke="url(#paint4_linear_513_4885)" stroke-width="2"/>
<path d="M72.4146 504L72.4146 0" stroke="url(#paint5_linear_513_4885)" stroke-width="2"/>
<path d="M321.011 504L321.011 0" stroke="url(#paint6_linear_513_4885)" stroke-width="2"/>
<path d="M154.911 504L154.911 0" stroke="url(#paint7_linear_513_4885)" stroke-width="2"/>
<path d="M376.378 504L376.378 0" stroke="url(#paint8_linear_513_4885)" stroke-width="2"/>
<path d="M210.278 504L210.278 0" stroke="url(#paint9_linear_513_4885)" stroke-width="2"/>
<path d="M265.645 504L265.645 0" stroke="url(#paint10_linear_513_4885)" stroke-width="2"/>
<path d="M99.5442 504L99.5442 0" stroke="url(#paint11_linear_513_4885)" stroke-width="2"/>
<path d="M-6.19888e-06 308.898L504 308.898" stroke="url(#paint12_linear_513_4885)" stroke-width="2"/>
<path d="M-6.19888e-06 142.798L504 142.798" stroke="url(#paint13_linear_513_4885)" stroke-width="2"/>
<path d="M-6.19888e-06 364.265L504 364.265" stroke="url(#paint14_linear_513_4885)" stroke-width="2"/>
<path d="M-6.19888e-06 198.164L504 198.164" stroke="url(#paint15_linear_513_4885)" stroke-width="2"/>
<path d="M-6.19888e-06 253.531L504 253.531" stroke="url(#paint16_linear_513_4885)" stroke-width="2"/>
<path d="M-6.19888e-06 87.9847L504 87.9847" stroke="url(#paint17_linear_513_4885)" stroke-width="2"/>
<path d="M-6.19888e-06 336.581L504 336.581" stroke="url(#paint18_linear_513_4885)" stroke-width="2"/>
<path d="M-6.19888e-06 170.481L504 170.481" stroke="url(#paint19_linear_513_4885)" stroke-width="2"/>
<path d="M-6.19888e-06 391.948L504 391.948" stroke="url(#paint20_linear_513_4885)" stroke-width="2"/>
<path d="M-6.19888e-06 225.848L504 225.848" stroke="url(#paint21_linear_513_4885)" stroke-width="2"/>
<path d="M-6.19888e-06 281.215L504 281.215" stroke="url(#paint22_linear_513_4885)" stroke-width="2"/>
<path d="M-6.19888e-06 115.114L504 115.114" stroke="url(#paint23_linear_513_4885)" stroke-width="2"/>
<rect x="195" y="280" width="3" height="20" transform="rotate(90 195 280)" fill="#2FA300"/>
<rect x="186.5" y="291" width="3" height="20" transform="rotate(-180 186.5 291)" fill="#2FA300"/>
<rect x="278" y="169" width="3" height="20" transform="rotate(90 278 169)" fill="#161817"/>
<rect x="269.5" y="180" width="3" height="20" transform="rotate(-180 269.5 180)" fill="#161817"/>
<rect x="278" y="335" width="3" height="20" transform="rotate(90 278 335)" fill="#161817"/>
<rect x="269.5" y="346" width="3" height="20" transform="rotate(-180 269.5 346)" fill="#161817"/>
<rect x="112" y="335" width="3" height="20" transform="rotate(90 112 335)" fill="#161817"/>
<rect x="103.5" y="346" width="3" height="20" transform="rotate(-180 103.5 346)" fill="#161817"/>
<defs>
<linearGradient id="paint0_linear_513_4885" x1="307.826" y1="58.5213" x2="307.826" y2="516.54" gradientUnits="userSpaceOnUse">
<stop stop-color="#1F1F1F" stop-opacity="0"/>
<stop offset="0.489583" stop-color="#1F1F1F"/>
<stop offset="1" stop-color="#1F1F1F" stop-opacity="0.100954"/>
</linearGradient>
<linearGradient id="paint1_linear_513_4885" x1="141.726" y1="58.5213" x2="141.726" y2="516.54" gradientUnits="userSpaceOnUse">
<stop stop-color="#1F1F1F" stop-opacity="0"/>
<stop offset="0.489583" stop-color="#1F1F1F"/>
<stop offset="1" stop-color="#1F1F1F" stop-opacity="0.100954"/>
</linearGradient>
<linearGradient id="paint2_linear_513_4885" x1="363.193" y1="58.5213" x2="363.193" y2="516.54" gradientUnits="userSpaceOnUse">
<stop stop-color="#1F1F1F" stop-opacity="0"/>
<stop offset="0.489583" stop-color="#1F1F1F"/>
<stop offset="1" stop-color="#1F1F1F" stop-opacity="0.100954"/>
</linearGradient>
<linearGradient id="paint3_linear_513_4885" x1="197.093" y1="58.5213" x2="197.093" y2="516.54" gradientUnits="userSpaceOnUse">
<stop stop-color="#1F1F1F" stop-opacity="0"/>
<stop offset="0.489583" stop-color="#1F1F1F"/>
<stop offset="1" stop-color="#1F1F1F" stop-opacity="0.100954"/>
</linearGradient>
<linearGradient id="paint4_linear_513_4885" x1="252.459" y1="58.5213" x2="252.459" y2="516.54" gradientUnits="userSpaceOnUse">
<stop stop-color="#1F1F1F" stop-opacity="0"/>
<stop offset="0.489583" stop-color="#1F1F1F"/>
<stop offset="1" stop-color="#1F1F1F" stop-opacity="0.100954"/>
</linearGradient>
<linearGradient id="paint5_linear_513_4885" x1="86.9128" y1="58.5213" x2="86.9128" y2="516.54" gradientUnits="userSpaceOnUse">
<stop stop-color="#1F1F1F" stop-opacity="0"/>
<stop offset="0.489583" stop-color="#1F1F1F"/>
<stop offset="1" stop-color="#1F1F1F" stop-opacity="0.100954"/>
</linearGradient>
<linearGradient id="paint6_linear_513_4885" x1="335.51" y1="58.5213" x2="335.51" y2="516.54" gradientUnits="userSpaceOnUse">
<stop stop-color="#1F1F1F" stop-opacity="0"/>
<stop offset="0.489583" stop-color="#1F1F1F"/>
<stop offset="1" stop-color="#1F1F1F" stop-opacity="0.100954"/>
</linearGradient>
<linearGradient id="paint7_linear_513_4885" x1="169.409" y1="58.5213" x2="169.409" y2="516.54" gradientUnits="userSpaceOnUse">
<stop stop-color="#1F1F1F" stop-opacity="0"/>
<stop offset="0.489583" stop-color="#1F1F1F"/>
<stop offset="1" stop-color="#1F1F1F" stop-opacity="0.100954"/>
</linearGradient>
<linearGradient id="paint8_linear_513_4885" x1="390.876" y1="58.5213" x2="390.876" y2="516.54" gradientUnits="userSpaceOnUse">
<stop stop-color="#1F1F1F" stop-opacity="0"/>
<stop offset="0.489583" stop-color="#1F1F1F"/>
<stop offset="1" stop-color="#1F1F1F" stop-opacity="0.100954"/>
</linearGradient>
<linearGradient id="paint9_linear_513_4885" x1="224.776" y1="58.5213" x2="224.776" y2="516.54" gradientUnits="userSpaceOnUse">
<stop stop-color="#1F1F1F" stop-opacity="0"/>
<stop offset="0.489583" stop-color="#1F1F1F"/>
<stop offset="1" stop-color="#1F1F1F" stop-opacity="0.100954"/>
</linearGradient>
<linearGradient id="paint10_linear_513_4885" x1="280.143" y1="58.5213" x2="280.143" y2="516.54" gradientUnits="userSpaceOnUse">
<stop stop-color="#1F1F1F" stop-opacity="0"/>
<stop offset="0.489583" stop-color="#1F1F1F"/>
<stop offset="1" stop-color="#1F1F1F" stop-opacity="0.100954"/>
</linearGradient>
<linearGradient id="paint11_linear_513_4885" x1="114.042" y1="58.5213" x2="114.042" y2="516.54" gradientUnits="userSpaceOnUse">
<stop stop-color="#1F1F1F" stop-opacity="0"/>
<stop offset="0.489583" stop-color="#1F1F1F"/>
<stop offset="1" stop-color="#1F1F1F" stop-opacity="0.100954"/>
</linearGradient>
<linearGradient id="paint12_linear_513_4885" x1="445.479" y1="323.396" x2="-12.5402" y2="323.396" gradientUnits="userSpaceOnUse">
<stop stop-color="#1F1F1F" stop-opacity="0"/>
<stop offset="0.489583" stop-color="#1F1F1F"/>
<stop offset="1" stop-color="#1F1F1F" stop-opacity="0.100954"/>
</linearGradient>
<linearGradient id="paint13_linear_513_4885" x1="445.479" y1="157.296" x2="-12.5402" y2="157.296" gradientUnits="userSpaceOnUse">
<stop stop-color="#1F1F1F" stop-opacity="0"/>
<stop offset="0.489583" stop-color="#1F1F1F"/>
<stop offset="1" stop-color="#1F1F1F" stop-opacity="0.100954"/>
</linearGradient>
<linearGradient id="paint14_linear_513_4885" x1="445.479" y1="378.763" x2="-12.5402" y2="378.763" gradientUnits="userSpaceOnUse">
<stop stop-color="#1F1F1F" stop-opacity="0"/>
<stop offset="0.489583" stop-color="#1F1F1F"/>
<stop offset="1" stop-color="#1F1F1F" stop-opacity="0.100954"/>
</linearGradient>
<linearGradient id="paint15_linear_513_4885" x1="445.479" y1="212.663" x2="-12.5402" y2="212.663" gradientUnits="userSpaceOnUse">
<stop stop-color="#1F1F1F" stop-opacity="0"/>
<stop offset="0.489583" stop-color="#1F1F1F"/>
<stop offset="1" stop-color="#1F1F1F" stop-opacity="0.100954"/>
</linearGradient>
<linearGradient id="paint16_linear_513_4885" x1="445.479" y1="268.03" x2="-12.5402" y2="268.03" gradientUnits="userSpaceOnUse">
<stop stop-color="#1F1F1F" stop-opacity="0"/>
<stop offset="0.489583" stop-color="#1F1F1F"/>
<stop offset="1" stop-color="#1F1F1F" stop-opacity="0.100954"/>
</linearGradient>
<linearGradient id="paint17_linear_513_4885" x1="445.479" y1="102.483" x2="-12.5402" y2="102.483" gradientUnits="userSpaceOnUse">
<stop stop-color="#1F1F1F" stop-opacity="0"/>
<stop offset="0.489583" stop-color="#1F1F1F"/>
<stop offset="1" stop-color="#1F1F1F" stop-opacity="0.100954"/>
</linearGradient>
<linearGradient id="paint18_linear_513_4885" x1="445.479" y1="351.079" x2="-12.5402" y2="351.079" gradientUnits="userSpaceOnUse">
<stop stop-color="#1F1F1F" stop-opacity="0"/>
<stop offset="0.489583" stop-color="#1F1F1F"/>
<stop offset="1" stop-color="#1F1F1F" stop-opacity="0.100954"/>
</linearGradient>
<linearGradient id="paint19_linear_513_4885" x1="445.479" y1="184.979" x2="-12.5402" y2="184.979" gradientUnits="userSpaceOnUse">
<stop stop-color="#1F1F1F" stop-opacity="0"/>
<stop offset="0.489583" stop-color="#1F1F1F"/>
<stop offset="1" stop-color="#1F1F1F" stop-opacity="0.100954"/>
</linearGradient>
<linearGradient id="paint20_linear_513_4885" x1="445.479" y1="406.446" x2="-12.5402" y2="406.446" gradientUnits="userSpaceOnUse">
<stop stop-color="#1F1F1F" stop-opacity="0"/>
<stop offset="0.489583" stop-color="#1F1F1F"/>
<stop offset="1" stop-color="#1F1F1F" stop-opacity="0.100954"/>
</linearGradient>
<linearGradient id="paint21_linear_513_4885" x1="445.479" y1="240.346" x2="-12.5402" y2="240.346" gradientUnits="userSpaceOnUse">
<stop stop-color="#1F1F1F" stop-opacity="0"/>
<stop offset="0.489583" stop-color="#1F1F1F"/>
<stop offset="1" stop-color="#1F1F1F" stop-opacity="0.100954"/>
</linearGradient>
<linearGradient id="paint22_linear_513_4885" x1="445.479" y1="295.713" x2="-12.5402" y2="295.713" gradientUnits="userSpaceOnUse">
<stop stop-color="#1F1F1F" stop-opacity="0"/>
<stop offset="0.489583" stop-color="#1F1F1F"/>
<stop offset="1" stop-color="#1F1F1F" stop-opacity="0.100954"/>
</linearGradient>
<linearGradient id="paint23_linear_513_4885" x1="445.479" y1="129.613" x2="-12.5402" y2="129.613" gradientUnits="userSpaceOnUse">
<stop stop-color="#1F1F1F" stop-opacity="0"/>
<stop offset="0.489583" stop-color="#1F1F1F"/>
<stop offset="1" stop-color="#1F1F1F" stop-opacity="0.100954"/>
</linearGradient>
</defs>
</svg>
