<svg width="48.000000" height="44.210449" viewBox="0 0 48 44.2104" fill="none" xmlns="http://www.w3.org/2000/svg" xmlns:xlink="http://www.w3.org/1999/xlink">
	<desc>
			Created with Pixso.
	</desc>
	<defs>
		<clipPath id="clip993_496">
			<rect id="clarity:users-line" width="48.000000" height="44.210526" fill="white" fill-opacity="0"/>
		</clipPath>
	</defs>
	<rect id="clarity:users-line" width="48.000000" height="44.210526" fill="#FFFFFF" fill-opacity="0"/>
	<g clip-path="url(#clip993_496)">
		<path id="Vector" d="M23.8408 20.8018C28.1445 20.8018 31.4922 17.3066 31.4922 13.0171C31.4922 8.72705 27.9854 5.39062 23.6816 5.39062C19.377 5.39062 16.0293 8.88574 16.0293 13.0171C16.0293 17.3066 19.5361 20.8018 23.8408 20.8018ZM23.6816 8.56836C26.2314 8.56836 28.3047 10.6338 28.3047 13.1758C28.3047 15.7178 26.2314 17.6245 23.6816 17.6245C21.1309 17.6245 19.2178 15.5591 19.2178 13.1758C19.2178 10.6338 21.29 8.56836 23.6816 8.56836Z" fill="#0D5C63" fill-opacity="1.000000" fill-rule="nonzero"/>
		<path id="Vector" d="M47.4336 19.8486C44.4043 17.1479 40.4189 15.7178 36.2744 15.8765L34.999 15.8765C34.6807 17.1479 34.2021 18.2598 33.5645 19.2134C34.5205 19.0542 35.3184 19.0542 36.2744 19.0542C39.3037 18.8955 42.332 19.8486 44.7236 21.5962L44.7236 33.0356L47.9121 33.0356L47.9121 20.3252L47.4336 19.8486Z" fill="#0D5C63" fill-opacity="1.000000" fill-rule="nonzero"/>
		<path id="Vector" d="M32.6084 5.7085C33.4062 3.80176 35.6377 2.84863 37.71 3.64258C39.623 4.43701 40.5791 6.66162 39.7822 8.72705C39.1445 10.1567 37.71 11.1104 36.2754 11.1104C35.9561 11.1104 35.4785 11.1104 35.1592 10.9512C35.3184 11.7456 35.3184 12.54 35.3184 13.1758L35.3184 14.1289C35.6377 14.1289 35.9561 14.2876 36.2754 14.2876C40.2607 14.2876 43.4492 11.1104 43.4492 7.29688C43.4492 3.3252 40.2607 0.147461 36.4346 0.147461C33.8838 0.147461 31.6523 1.41846 30.377 3.64258C31.1738 4.11963 31.9707 4.75488 32.6084 5.7085Z" fill="#0D5C63" fill-opacity="1.000000" fill-rule="nonzero"/>
		<path id="Vector" d="M14.4355 19.3721C13.7979 18.4185 13.3193 17.3066 13 16.0356L11.7256 16.0356C7.58008 15.8765 3.59473 17.3066 0.566406 19.8486L0.0878906 20.3252L0.0878906 33.0356L3.27637 33.0356L3.27637 21.5962C5.82715 19.8486 8.69629 18.895 11.7256 19.0542C12.6816 19.0542 13.6377 19.2129 14.4355 19.3721Z" fill="#0D5C63" fill-opacity="1.000000" fill-rule="nonzero"/>
		<path id="Vector" d="M11.7246 14.1294C12.0439 14.1294 12.3623 14.1294 12.6807 13.9707L12.6807 13.0176C12.6807 12.2231 12.6807 11.4287 12.8408 10.793C12.5215 10.9521 12.0439 10.9521 11.7246 10.9521C9.65234 10.9521 7.89844 9.2041 7.89844 7.13867C7.89844 5.07324 9.65234 3.32568 11.7246 3.32568C13.3184 3.32568 14.7539 4.27881 15.3916 5.70898C16.0293 4.91455 16.9854 4.12012 17.7822 3.48438C15.71 0.147949 11.4062 -0.963867 8.05762 1.10156C4.70996 3.16699 3.59473 7.45654 5.66699 10.793C6.94238 12.8584 9.17383 14.1294 11.7246 14.1294Z" fill="#0D5C63" fill-opacity="1.000000" fill-rule="nonzero"/>
		<path id="Vector" d="M36.9131 29.3818L36.5938 28.9053C33.4053 25.4097 28.9424 23.3442 24.1592 23.5034C19.377 23.3442 14.7539 25.4097 11.5654 28.9053L11.2471 29.3818L11.2471 41.4565C11.2471 42.8867 12.3633 44.1577 13.957 44.1577L34.3623 44.1577C35.7969 44.1577 37.0723 42.8867 37.0723 41.4565L37.0723 29.3818L36.9131 29.3818ZM33.7246 40.98L14.4355 40.98L14.4355 30.4937C16.9863 27.9517 20.4932 26.6807 24.1592 26.6807C27.667 26.522 31.1738 27.9517 33.7246 30.4937L33.7246 40.98Z" fill="#0D5C63" fill-opacity="1.000000" fill-rule="nonzero"/>
	</g>
</svg>
